<svg id="PNG" xmlns="http://www.w3.org/2000/svg" viewBox="0 0 825.82 273.31"><defs><style>.cls-1{fill:#da1871;}</style></defs><path class="cls-1" d="M3861.47,931.14V735.81a67.34,67.34,0,0,1,67.34-67.34h0V770.86h16.94a24.55,24.55,0,0,0,13.39-3.74q5.91-3.75,11-17.53l4.08-11.18a106.29,106.29,0,0,1,99.89-69.94h0l-39,92.15q-5.52,13.39-13.39,21.07a45.17,45.17,0,0,1-17.32,10.83,50.64,50.64,0,0,1,18.9,13.19q7.47,8.47,13,22.25l43.32,103.18h-1.94a106.2,106.2,0,0,1-99.28-68.52h0q-5.89-15.75-12-23.24t-17.52-7.48h-20.09v31.9a67.34,67.34,0,0,1-67.34,67.34Z" transform="translate(-3861.47 -663.35)"/><path class="cls-1" d="M4130.05,931.14V735.41a67.34,67.34,0,0,1,67.34-67.34h0V863.8a67.34,67.34,0,0,1-67.34,67.34Z" transform="translate(-3861.47 -663.35)"/><path class="cls-1" d="M4348.61,936.65q-34.65,0-58.08-8.07t-40-19.1h0A63,63,0,0,1,4325,876.89l1.14.3a99.37,99.37,0,0,0,21.66,2.75q16.92,0,25.2-5.31t8.27-14.77q0-9.45-4.73-13.78-7.48-7.1-44.5-20.09a256.8,256.8,0,0,1-32.68-12.21,94.28,94.28,0,0,1-25-16.34,64.57,64.57,0,0,1-15.95-22.84q-5.52-13.19-5.51-31.7,0-26.39,14.17-45.29a71.34,71.34,0,0,1,25.21-21.47,110.22,110.22,0,0,1,30.12-10,160,160,0,0,1,27.37-2.75,149.62,149.62,0,0,1,34.27,3.54,133.83,133.83,0,0,1,26.58,9.06,99.06,99.06,0,0,1,20.08,12.4,147,147,0,0,1,14.38,13.2h0a67.52,67.52,0,0,1-77.89,20.8c-6.56-2.59-12.21-4.26-15.45-4.26q-16.53,0-24.41,5.31t-7.88,14q0,9.07,9.06,15.76,8.66,5.52,40.17,15.75,32.69,9.45,50,23.23t22.45,30.72a137,137,0,0,1,5.91,32.69q0,29.54-16.54,48.83A80,80,0,0,1,4391,930Q4367.52,936.65,4348.61,936.65Z" transform="translate(-3861.47 -663.35)"/><path class="cls-1" d="M4550.64,931.14v-202h-69.71a61,61,0,0,1,61-61h145.31a61,61,0,0,1-61,61h-7.87V863.4a67.74,67.74,0,0,1-67.74,67.74Z" transform="translate(-3861.47 -663.35)"/></svg>