<svg xmlns="http://www.w3.org/2000/svg" viewBox="0 0 628.43 354.8"><defs><style>.cls-1{fill:#b91c6d;}.cls-2{fill:#991f6d;}.cls-3{fill:#fff;}.cls-4{fill:#9e2a6f;}.cls-5{fill:#601f49;}.cls-6{fill:#992b38;}.cls-7{fill:#e05ac4;}</style></defs><g id="OBJECTS"><polygon class="cls-1" points="0 354.8 444.61 354.8 538.66 57.56 106.88 57.56 0 354.8"/><polygon class="cls-1" points="538.66 57.56 628.43 354.8 444.61 354.8 538.66 57.56"/><polygon class="cls-2" points="106.88 57.56 538.66 57.56 513.89 135.83 78.73 135.83 106.88 57.56"/><polygon class="cls-3" points="89.23 147.46 16.44 343.4 431.24 343.4 493.94 147.46 89.23 147.46"/><path class="cls-4" d="M534.78,292.64H431.31l17.6-53a1.53,1.53,0,0,0-2.91-1l-17.92,54H317l17.6-53a1.53,1.53,0,0,0-2.91-1l-17.92,54H208l17.6-53a1.53,1.53,0,0,0-2.91-1l-17.92,54H127.3a1.53,1.53,0,0,0,0,3.06h76.46l-24.2,72.9H99.08a1.53,1.53,0,1,0,0,3.06h79.46l-21.27,64.07a1.53,1.53,0,0,0,1,1.94,1.61,1.61,0,0,0,.48.08,1.54,1.54,0,0,0,1.46-1.05l21.58-65H287.51l-21.27,64.07a1.53,1.53,0,0,0,1,1.94,1.61,1.61,0,0,0,.48.08,1.54,1.54,0,0,0,1.46-1.05l21.58-65H401.85l-21.27,64.07a1.53,1.53,0,0,0,1,1.94,1.61,1.61,0,0,0,.48.08,1.53,1.53,0,0,0,1.45-1.05l21.59-65H509.28a1.53,1.53,0,1,0,0-3.06H406.09l24.2-72.9H534.78a1.53,1.53,0,0,0,0-3.06Zm-352,76L207,295.7H312.73l-24.2,72.9Zm220.08,0H291.75L316,295.7H427.06Z" transform="translate(-58.09 -92.81)"/><path class="cls-5" d="M236.19,350.77a6.11,6.11,0,0,1-4.61-2.09l-18.8-21.49a6.12,6.12,0,1,1,9.21-8.06l15.53,17.74,55.34-31.14a6.12,6.12,0,1,1,6,10.67L239.19,350A6.12,6.12,0,0,1,236.19,350.77Z" transform="translate(-58.09 -92.81)"/><path class="cls-5" d="M312.68,423.14a6.11,6.11,0,0,1-4.61-2.09l-18.8-21.48a6.13,6.13,0,0,1,9.22-8.07L314,409.24l55.34-31.14a6.13,6.13,0,0,1,6,10.68l-59.68,33.58A6.11,6.11,0,0,1,312.68,423.14Z" transform="translate(-58.09 -92.81)"/><path class="cls-5" d="M454.23,358.82a6.1,6.1,0,0,1-4.61-2.09l-18.8-21.48a6.12,6.12,0,1,1,9.21-8.07l15.53,17.74,55.34-31.14a6.12,6.12,0,0,1,6,10.68L457.23,358A6.15,6.15,0,0,1,454.23,358.82Z" transform="translate(-58.09 -92.81)"/><polygon class="cls-6" points="538.66 57.56 476.69 354.8 444.61 354.8 538.66 57.56"/><path class="cls-5" d="M505.35,192.4c-5.86,6-13.71,7.73-17.55,4s-2.19-11.65,3.67-17.61,13.72-7.73,17.55-4S511.21,186.44,505.35,192.4Z" transform="translate(-58.09 -92.81)"/><path class="cls-5" d="M416.5,192.4c-5.86,6-13.72,7.73-17.55,4s-2.19-11.65,3.67-17.61,13.72-7.73,17.55-4S422.36,186.44,416.5,192.4Z" transform="translate(-58.09 -92.81)"/><path class="cls-5" d="M322.11,192.4c-5.86,6-13.71,7.73-17.55,4s-2.19-11.65,3.67-17.61,13.72-7.73,17.55-4S328,186.44,322.11,192.4Z" transform="translate(-58.09 -92.81)"/><path class="cls-5" d="M230.88,192.4c-5.86,6-13.71,7.73-17.55,4s-2.19-11.65,3.67-17.61,13.72-7.73,17.55-4S236.74,186.44,230.88,192.4Z" transform="translate(-58.09 -92.81)"/><path class="cls-7" d="M502.69,180.91l0,0c-3.74-7.82-6.26-18.3-6.26-30.51,0-26.71,12-45.32,22.71-45.32s22.71,18.61,22.71,45.32h12.24c0-32.28-15.35-57.57-35-57.57s-34.95,25.29-34.95,57.57c0,14.67,3.2,27.86,8.5,37.93C504.5,191.16,502.69,180.91,502.69,180.91Z" transform="translate(-58.09 -92.81)"/><path class="cls-7" d="M415.36,180.91l0,0c-3.74-7.82-6.25-18.3-6.25-30.51,0-26.71,12-45.32,22.7-45.32s22.71,18.61,22.71,45.32h12.24c0-32.28-15.35-57.57-34.95-57.57s-34.95,25.29-34.95,57.57c0,14.67,3.2,27.86,8.5,37.93C417.17,191.16,415.36,180.91,415.36,180.91Z" transform="translate(-58.09 -92.81)"/><path class="cls-7" d="M322,180.91l0,0c-3.74-7.82-6.25-18.3-6.25-30.51,0-26.71,12-45.32,22.7-45.32s22.71,18.61,22.71,45.32h12.24c0-32.28-15.35-57.57-34.95-57.57s-34.95,25.29-34.95,57.57c0,14.67,3.2,27.86,8.5,37.93C323.78,191.16,322,180.91,322,180.91Z" transform="translate(-58.09 -92.81)"/><path class="cls-7" d="M226.3,180.91l0,0c-3.74-7.82-6.26-18.3-6.26-30.51,0-26.71,12-45.32,22.71-45.32s22.71,18.61,22.71,45.32h12.24c0-32.28-15.35-57.57-35-57.57s-35,25.29-35,57.57c0,14.67,3.19,27.86,8.5,37.93C228.11,191.16,226.3,180.91,226.3,180.91Z" transform="translate(-58.09 -92.81)"/></g></svg>